<svg version="1.2" xmlns="http://www.w3.org/2000/svg" viewBox="0 0 700 700" width="700" height="700">
	<title>noun-boat-31503-svg</title>
	<style>
		.s0 { fill: #000000 } 
	</style>
	<g id="Layer">
		<path id="Layer" fill-rule="evenodd" class="s0" d="m587.7 261.2c0.5 0.9 0.4 2.1-0.3 3l-10.6 13.2q-0.1 0-0.1 0-0.3 0.3-0.6 0.5-0.1 0.1-0.3 0.2 0 0 0 0l-147.4 67.8q-0.5 0.2-1.2 0.2h-284.1c-0.9 0-1.6-0.3-2.2-1l-28.3-34.2c0-0.1 0-0.1 0-0.2-0.1 0-0.1 0-0.2-0.1-0.1-0.2-0.1-0.4-0.1-0.6-0.1-0.2-0.2-0.4-0.2-0.7-0.1-0.2 0-0.5 0.1-0.7 0-0.2 0-0.4 0-0.6 0.1 0 0.1-0.1 0.1-0.1 0.1-0.1 0-0.1 0.1-0.2l7.3-13.1c0.1-0.2 0.3-0.3 0.5-0.5 0.1 0 0.1-0.2 0.2-0.3l33.5-27.4q0-0.1 0.1-0.1c0.2-0.2 0.5-0.3 0.8-0.4l84.6-27 108.5-25c1-0.2 2 0.1 2.7 0.9l5.6 6.2 43.6 30.9 151.8-3.4q0.9 0 1.6 0.4l7.9 5.1 11.9 6.5 12-0.8c1.1-0.1 2.2 0.5 2.7 1.5zm-24.9 0.1l-3.8-2.1-395.7 25.4-6.6 6.1 180.7-13.1zm-305.4-13.1l11 11.4 75.1-4.4-28.8-20.1zm133.5 4.3l-37.2-26.3-31.6 7.2 30.5 21.3zm-171.6-1.3l129.8-29.6-1.5-1.8-106.8 24.5zm-88.5 41.5l17.1-1.3 12.4-11.5c0.4-0.4 1-0.7 1.7-0.7l389-25-151.9 3.4-131.5 7.7q-0.1 0-0.2 0c-0.8 0-1.5-0.3-2-0.8l-14.3-14.8-94.1 21.5zm428.7-13.1l-242.3 17.7-196.7 14.3 24 29.1h282.2zm19.6-13.9l-455.2 33-4.1 7.3 453.5-33z"/>
	</g>
</svg>