<?xml version="1.0" encoding="UTF-8"?>
<svg width="700pt" height="700pt" version="1.1" viewBox="0 0 700 700" xmlns="http://www.w3.org/2000/svg">
 <g>
  <path d="m173.57 427.96-5.6016-3.4141c-5.6016-3.4141-12.215-4.4453-18.586-2.8867-6.3867 1.5586-11.777 5.4961-15.207 11.094l-33.582 55.145c-3.4141 5.6172-4.4453 12.215-2.9062 18.602 1.5586 6.3867 5.4961 11.777 11.113 15.207l5.6016 3.3945c3.9023 2.3789 8.2969 3.6055 12.758 3.6055 1.9414 0 3.9023-0.22656 5.8438-0.69922 6.3867-1.5586 11.777-5.4961 15.207-11.113l33.582-55.141c7.0547-11.566 3.3594-26.723-8.2227-33.793z"/>
  <path d="m204.47 366.77c-20.195-12.301-46.672-5.8789-58.977 14.316-5.9688 9.8008-7.7539 21.316-5.0586 32.461 2.7109 11.129 9.5898 20.547 19.371 26.531 6.9492 4.2344 14.648 6.2461 22.242 6.2461 14.488 0 28.648-7.3164 36.715-20.578 12.324-20.195 5.9023-46.656-14.293-58.977zm-12.266 42.785c-3.3789 5.5664-10.641 7.3164-16.188 3.9375-5.5469-3.3789-7.3164-10.641-3.9375-16.188s10.641-7.3164 16.188-3.9375c5.5469 3.3789 7.3125 10.625 3.9375 16.188z"/>
  <path d="m576.2 471.94c-4.8125 0-8.7344-3.9023-8.75-8.7344l-0.15625-47.863c-0.015625-4.8281 3.9727-8.3477 8.75-8.7656 4.8125 0 8.7344 3.9023 8.75 8.7344l0.15625 47.863c0.019531 4.8438-4.0234 9.1328-8.75 8.7656z"/>
  <path d="m576.2 383.16c-4.8281 0-8.75-3.9219-8.75-8.75v-331.99c-195.63 88.477-358.57 334.11-360.23 336.63-2.6406 4.0586-8.0859 5.1797-12.109 2.5195-4.043-2.6602-5.1641-8.0664-2.5195-12.109 7.0312-10.711 174.37-262.89 380.24-348.46 2.7305-1.1016 5.8086-0.80469 8.2266 0.80469 2.4492 1.6289 3.9023 4.3594 3.9023 7.2812v345.33c-0.003906 4.8281-3.9219 8.75-8.7539 8.75z"/>
  <path d="m199.9 382.99c-4.3906 0-8.1719-3.2891-8.6797-7.7695-0.54297-4.7969 2.9062-9.1172 7.6992-9.6758 4.4453-0.50781 108.75-13.789 96.355-123.15-0.29688-2.5742 0.57812-5.1289 2.3633-7 1.7852-1.8711 4.1992-2.9062 6.8945-2.7109 0.45312 0.035156 50.207 2.6758 81.727-27.844 18.586-17.988 27.492-44.258 26.512-78.051-0.070313-2.5898 1.0156-5.0938 2.957-6.8086 1.9258-1.7148 4.4258-2.5195 7.1055-2.1016 4.2695 0.61328 104.65 14.402 143.27-90.879 1.6797-4.5312 6.7383-6.8438 11.234-5.1992 4.5508 1.6641 6.8789 6.6836 5.2148 11.234-36.066 98.297-122.64 103.93-152.23 102.93-0.78906 34.406-11.516 61.809-31.973 81.551-28.121 27.176-66.691 31.988-84.805 32.672 2.0117 33.758-6.1094 62.316-24.203 84.996-32.797 41.109-86.188 47.496-88.445 47.758-0.34766 0.023438-0.67969 0.042969-0.99609 0.042969z"/>
  <path d="m105 411.6c-1.5391 0-3.1133-0.40234-4.5508-1.2773-4.1289-2.5195-5.4414-7.9102-2.9219-12.039l20.613-33.863c1.207-1.9766 3.1484-3.3945 5.4062-3.9531 2.2383-0.54297 4.6367-0.17578 6.6133 1.0312l27.34 16.676c4.1289 2.5195 5.4414 7.8906 2.9219 12.023-2.5195 4.1133-7.8906 5.4609-12.023 2.9219l-19.863-12.094-16.062 26.371c-1.6445 2.7148-4.5312 4.2031-7.4727 4.2031z"/>
  <path d="m309.16 247.89c-2.0117 0-4.0234-0.68359-5.6719-2.082l-20.109-17.133c-3.6758-3.1328-4.1133-8.6641-0.99609-12.336 3.1484-3.6914 8.6641-4.1133 12.336-0.99609l20.109 17.133c3.6758 3.1328 4.1133 8.6641 0.99609 12.336-1.7305 2.0273-4.1992 3.0781-6.6641 3.0781z"/>
  <path d="m425.9 135.01c-2.3984 0-4.7773-0.98047-6.5117-2.9219l-16.309-18.219c-3.2383-3.6055-2.9219-9.1367 0.66406-12.355 3.5859-3.2188 9.1172-2.9414 12.355 0.68359l16.309 18.219c3.2383 3.6055 2.9219 9.1367-0.66406 12.355-1.6797 1.5039-3.7617 2.2383-5.8438 2.2383z"/>
  <path d="m548.08 500.13c-20.246 0-36.766-16.449-36.82-36.734l-0.015625-5.7031c-3.4648 2.6953-8.4883 2.3984-11.621-0.82422-3.3594-3.4648-3.2891-9.0117 0.17578-12.371l14.035-13.633c2.5391-2.4688 6.2109-3.168 9.5039-1.8008 3.2383 1.3633 5.3359 4.5312 5.3555 8.0312l0.085938 26.25c0.035156 10.641 8.6992 19.285 19.336 19.285h0.050781c10.676-0.035156 19.32-8.75 19.301-19.406-0.015625-4.8281 3.9023-8.75 8.7148-8.7656h0.035156c4.8125 0 8.7344 3.9023 8.75 8.7344 0.070312 20.316-16.414 36.891-36.734 36.961-0.0625-0.023438-0.097656-0.023438-0.15234-0.023438z"/>
  <path d="m534.7 459.41c-2.1172 0-4.2344-0.75391-5.9141-2.293l-14.77-13.547c-3.5508-3.2734-3.7969-8.8008-0.52344-12.371 3.2891-3.5508 8.8359-3.7812 12.355-0.54297l14.77 13.547c3.5508 3.2734 3.7969 8.8008 0.52344 12.371-1.7344 1.8906-4.0977 2.8359-6.4414 2.8359z"/>
  <path d="m595.54 376.62c-5.2344-5.1992-12.164-8.0664-19.547-8.0664h-0.10547c-7.4219 0.015625-14.367 2.9219-19.602 8.1914-5.2344 5.25-8.0859 12.234-8.0664 19.652 0.015625 7.4219 2.9414 14.387 8.207 19.617 5.2344 5.1992 12.164 8.0664 19.547 8.0664h0.10547c7.4219-0.015625 14.367-2.9219 19.602-8.1914 5.2344-5.25 8.0859-12.234 8.0664-19.652-0.015625-7.418-2.9414-14.383-8.207-19.617z"/>
 </g>
</svg>
